# xmcd
#
# Track frame offsets:
#	150
#	17565
#	31234
#	45195
#	62582
#	80389
#	98640
#	114956
#	134071
#	146833
#	163370
#	181065
#	193186
#
# Disc length: 2862 seconds
#
# Revision: 0
# Processed by: cddbd v1.5.2PL0 Copyright (c) Steve Scherf et al.
# Submitted via: dBpowerAMP V4.0
#
DISCID=a80b2c0d
DTITLE=Craig Woolard Band -  "Come Get To This"
DYEAR=2007
DGENRE=beach
TTITLE0=River of Love
TTITLE1=What You Gave Me
TTITLE2=Money Honey
TTITLE3=I Can't Dance
TTITLE4=I Couln't Believe It
TTITLE5=On The Beach
TTITLE6=Hopelessly in Love
TTITLE7=Every Time You Cry
TTITLE8=The Coast Is Clear
TTITLE9=Bet You'll Never Be Sorry
TTITLE10=Color Away
TTITLE11=Come Get To This
TTITLE12=Save Room For My Love
EXTD=
EXTT0=
EXTT1=
EXTT2=
EXTT3=
EXTT4=
EXTT5=
EXTT6=
EXTT7=
EXTT8=
EXTT9=
EXTT10=
EXTT11=
EXTT12=
PLAYORDER=
